<?xml version="1.0" encoding="UTF-8"?>
<svg version="1.1" xmlns="http://www.w3.org/2000/svg" width="96" height="96">
<path d="M0 0 C3.03355046 0.57835915 4.33942526 1.91867798 6.08984375 4.3984375 C7.49985039 7.21845077 7.33532826 9.26851005 7.08984375 12.3984375 C5.2480837 16.88772763 1.85528401 19.57075343 -1.7890625 22.61328125 C-3.16621496 23.77232116 -4.51065769 24.97181156 -5.8125 26.21484375 C-7.46036011 27.76895252 -8.99845049 29.18274112 -10.91015625 30.3984375 C-13.84765625 30.2734375 -13.84765625 30.2734375 -15.91015625 29.3984375 C-16.625 27.63671875 -16.625 27.63671875 -16.91015625 25.3984375 C-15.5390625 23.50390625 -15.5390625 23.50390625 -13.47265625 21.5859375 C-12.74175781 20.89628906 -12.01085937 20.20664062 -11.2578125 19.49609375 C-8.34271085 16.8914189 -5.39158683 14.33500509 -2.37890625 11.84375 C-1.89421875 11.36679687 -1.40953125 10.88984375 -0.91015625 10.3984375 C-0.91015625 9.7384375 -0.91015625 9.0784375 -0.91015625 8.3984375 C-10.03643123 9.82836077 -18.78812499 20.95862983 -25.31396484 27.14355469 C-29.71315597 31.29993736 -29.71315597 31.29993736 -31.91015625 32.3984375 C-32.58366394 35.09856097 -32.58366394 35.09856097 -31.91015625 38.3984375 C-29.53221638 41.09580213 -26.75158463 43.20880631 -23.91015625 45.3984375 C-22.73966577 46.37302999 -21.57245915 47.35159485 -20.41015625 48.3359375 C-19.58515625 49.0165625 -18.76015625 49.6971875 -17.91015625 50.3984375 C-18.24015625 52.0484375 -18.57015625 53.6984375 -18.91015625 55.3984375 C-20.67578125 56.0859375 -20.67578125 56.0859375 -22.91015625 56.3984375 C-24.76953125 55.2109375 -24.76953125 55.2109375 -26.66015625 53.3984375 C-27.34722656 52.75519531 -28.03429688 52.11195312 -28.7421875 51.44921875 C-29.45761719 50.77246094 -30.17304688 50.09570312 -30.91015625 49.3984375 C-32.3848454 48.12241113 -33.86382594 46.85132242 -35.34765625 45.5859375 C-39.69830208 41.86532649 -39.69830208 41.86532649 -40.21875 38.26171875 C-40.45263896 33.63355231 -40.4713864 30.36118483 -37.41015625 26.7109375 C-36.27430962 25.57509087 -35.10618026 24.47073489 -33.91015625 23.3984375 C-33.35328125 22.8828125 -32.79640625 22.3671875 -32.22265625 21.8359375 C-30.15294852 19.98033746 -28.03438725 18.19148918 -25.91015625 16.3984375 C-24.75950127 15.40991871 -23.60984191 14.42024034 -22.4609375 13.4296875 C-15.74962044 7.64961845 -15.74962044 7.64961845 -13.48852539 5.73876953 C-12.06734467 4.53192001 -10.66703672 3.30059378 -9.26953125 2.06640625 C-6.01922669 -0.2314084 -3.86132821 -0.16704581 0 0 Z " fill="#FFFFFF" transform="translate(56.91015625,12.6015625)"/>
<path d="M0 0 C4.23169277 -0.56549648 5.67937168 -0.24226135 9.1484375 2.37890625 C10.23802782 3.42565313 11.31307434 4.4876977 12.375 5.5625 C13.51747747 6.67004677 14.66070445 7.77682091 15.8046875 8.8828125 C16.3522168 9.42067383 16.89974609 9.95853516 17.46386719 10.51269531 C19.411601 12.39851769 21.44025082 14.17535716 23.5 15.9375 C32.82396284 24.01958195 32.82396284 24.01958195 33.25 28.8125 C32.96929042 32.39154719 32.12271416 34.14250017 30 37 C26.43920411 38.78039795 22.86884369 38.75534567 19 38 C14.91684489 35.5760534 11.57727632 32.9771714 10.21875 28.32421875 C10.1465625 27.55722656 10.074375 26.79023437 10 26 C11 25 11 25 13.1875 24.625 C16.24502086 25.03266945 16.89567551 25.53196791 19.125 27.5 C21.74231315 30.32808936 21.74231315 30.32808936 25 30 C23.43638805 26.0308312 20.67775387 23.58613462 17.5625 20.8125 C17.03624023 20.33272705 16.50998047 19.8529541 15.96777344 19.35864258 C13.30884343 16.95965274 10.61120075 14.66214418 7.76171875 12.4921875 C6.76785156 11.73164062 5.77398437 10.97109375 4.75 10.1875 C3.83734375 9.52105469 2.9246875 8.85460937 1.984375 8.16796875 C0 6 0 6 -0.296875 2.73828125 C-0.19890625 1.83464844 -0.1009375 0.93101563 0 0 Z " fill="#FFFFFF" transform="translate(31,45)"/>
</svg>
