<?xml version="1.0" encoding="UTF-8"?>
<svg version="1.1" xmlns="http://www.w3.org/2000/svg" width="96" height="96">
<path d="M0 0 C4.85870058 0.33130411 7.12220262 1.50563101 10.48828125 4.96484375 C11.67067383 6.16463867 11.67067383 6.16463867 12.87695312 7.38867188 C13.68068359 8.22978516 14.48441406 9.07089844 15.3125 9.9375 C16.54709961 11.19336914 16.54709961 11.19336914 17.80664062 12.47460938 C24.81460644 19.65589669 24.81460644 19.65589669 25.5 24.625 C25.44679668 28.36640825 24.51604387 30.01092783 21.99609375 32.73828125 C21.04162354 33.77710449 21.04162354 33.77710449 20.06787109 34.83691406 C16.6080743 38.45601673 13.11245855 42.03171314 9.5625 45.5625 C8.85029297 46.27857422 8.13808594 46.99464844 7.40429688 47.73242188 C-7.62210517 62.731528 -7.62210517 62.731528 -13.875 63.4375 C-17.21647704 63.33269352 -18.05818326 62.96121116 -21 61 C-23.05029463 57.92455806 -23.86625063 55.82418653 -23.6015625 52.09765625 C-22.36447855 47.78392843 -19.12378856 45.06830386 -16 42 C-15.18144531 41.11183594 -14.36289062 40.22367188 -13.51953125 39.30859375 C-6.02047576 31.3330476 -6.02047576 31.3330476 0 31 C1 32 1 32 1.31640625 34.28515625 C0.89446357 37.9055286 -0.42803154 38.97015976 -3.0625 41.4375 C-3.8771875 42.21222656 -4.691875 42.98695312 -5.53125 43.78515625 C-7.66980198 45.70376222 -9.84323976 47.55138657 -12.0625 49.375 C-13.031875 50.24125 -14.00125 51.1075 -15 52 C-15 52.99 -15 53.98 -15 55 C-11.3505569 54.4261691 -9.71251405 53.05791275 -7.171875 50.4296875 C-6.45386719 49.6975 -5.73585938 48.9653125 -4.99609375 48.2109375 C-4.25488281 47.44007812 -3.51367188 46.66921875 -2.75 45.875 C2.09862163 40.87997239 6.95914595 36.02501143 12.26464844 31.51220703 C14.74013114 29.36479813 14.74013114 29.36479813 17 27 C16.84768277 22.85432248 15.38836526 20.90839932 12.4375 18.125 C11.72335938 17.44566406 11.00921875 16.76632813 10.2734375 16.06640625 C7.40209135 13.45654008 4.50967756 10.87622006 1.56640625 8.34765625 C0.68751602 7.59150381 -0.18017851 6.81982149 -1 6 C-1.125 3.5 -1.125 3.5 -1 1 C-0.67 0.67 -0.34 0.34 0 0 Z " fill="#FFFFFF" transform="translate(49,23)"/>
<path d="M0 0 C4.21230323 1.22441721 7.58188306 4.10819468 10.13671875 7.62109375 C10.35546875 10.359375 10.35546875 10.359375 10.13671875 12.62109375 C8.51171875 13.43359375 8.51171875 13.43359375 6.13671875 13.62109375 C4.09974258 11.999827 2.09857291 10.33249844 0.13671875 8.62109375 C-0.85328125 8.62109375 -1.84328125 8.62109375 -2.86328125 8.62109375 C-2.28884491 11.95941274 -1.34344193 13.47330383 1.1640625 15.72265625 C2.09895508 16.57452515 2.09895508 16.57452515 3.05273438 17.44360352 C3.71982422 18.03842529 4.38691406 18.63324707 5.07421875 19.24609375 C6.43833811 20.49648211 7.80161575 21.74778935 9.1640625 23 C11.05430941 24.72453904 12.94572799 26.44772954 14.84033203 28.16748047 C16.28666894 29.4908218 17.71255848 30.83641512 19.13671875 32.18359375 C19.94109375 32.92738281 20.74546875 33.67117187 21.57421875 34.4375 C23.13671875 36.62109375 23.13671875 36.62109375 22.88671875 39.3984375 C22.63921875 40.13191406 22.39171875 40.86539063 22.13671875 41.62109375 C19.23087901 41.8742124 17.63542263 41.95282116 15.16723633 40.31103516 C14.54486084 39.70437012 13.92248535 39.09770508 13.28125 38.47265625 C12.58064453 37.80121582 11.88003906 37.12977539 11.15820312 36.43798828 C10.42923828 35.71466309 9.70027344 34.99133789 8.94921875 34.24609375 C8.19833984 33.51890137 7.44746094 32.79170898 6.67382812 32.04248047 C4.482625 29.91403144 2.30832646 27.76950603 0.13671875 25.62109375 C-0.96292825 24.54754839 -2.06311071 23.47455097 -3.1640625 22.40234375 C-10.73209872 14.95478278 -10.73209872 14.95478278 -11.23828125 9.80859375 C-11.17655442 6.41979105 -10.85194916 5.60409561 -8.86328125 2.62109375 C-5.80402179 0.58158745 -3.70868468 -0.23311732 0 0 Z " fill="#FFFFFF" transform="translate(36.86328125,9.37890625)"/>
</svg>
